<svg xmlns="http://www.w3.org/2000/svg" viewBox="0 0 71.77 29.81"><g id="Layer_1" data-name="Layer 1"><path d="M54.47,19.15V22a3.17,3.17,0,0,1-.08.69,1.49,1.49,0,0,1-1.45,1,1.47,1.47,0,0,1-1.39-1.16,3.45,3.45,0,0,1,0-.64c0-1.78,0-3.55,0-5.33a3.34,3.34,0,0,0-1.36-2.68,2.81,2.81,0,0,0-3.63.11,3.52,3.52,0,0,0-1.24,2.71c0,1.67,0,3.35,0,5v.52a1.48,1.48,0,0,1-3,0c0-.91,0-1.82,0-2.73s0-2,0-3a6.4,6.4,0,0,1,2.17-4.7,5.89,5.89,0,0,1,9.14,1.65,6.94,6.94,0,0,1,.86,3.36c0,.77,0,1.53,0,2.3Z" transform="translate(-3.81 -5.1)" style="fill:#fff"/><path d="M72.88,16.88l.4.36a6.51,6.51,0,0,1,2.24,3.85,5.6,5.6,0,0,1,.06,1,1.44,1.44,0,0,1-1.3,1.39,1.45,1.45,0,0,1-1.58-1.06,1.55,1.55,0,0,1-.07-.43,3.08,3.08,0,0,0-.83-2,4.32,4.32,0,0,0-3.25-1.58,1.48,1.48,0,0,1,0-3A4.44,4.44,0,0,0,71.66,14a3.42,3.42,0,0,0,1-2.25,1.46,1.46,0,0,1,2.17-1.28,1.39,1.39,0,0,1,.77,1.27A5.55,5.55,0,0,1,75,14.32a7.15,7.15,0,0,1-1.78,2.27Z" transform="translate(-3.81 -5.1)" style="fill:#fff"/><path d="M60.35,17v4.85a4,4,0,0,1,0,.6A1.47,1.47,0,0,1,59,23.72a1.49,1.49,0,0,1-1.5-1.08,2.4,2.4,0,0,1-.07-.6V12a1.5,1.5,0,0,1,1.2-1.63,1.45,1.45,0,0,1,1.73,1.16,3.13,3.13,0,0,1,0,.61Z" transform="translate(-3.81 -5.1)" style="fill:#fff"/><path d="M66.13,17.06v5a2.29,2.29,0,0,1-.07.64,1.46,1.46,0,0,1-1.52,1,1.5,1.5,0,0,1-1.36-1.35,2.25,2.25,0,0,1,0-.26c0-3.38,0-6.75,0-10.13a2.08,2.08,0,0,1,0-.43,1.48,1.48,0,0,1,1.52-1.21,1.47,1.47,0,0,1,1.39,1.45c0,1.24,0,2.48,0,3.72Z" transform="translate(-3.81 -5.1)" style="fill:#fff"/><path d="M62.75,27.69a9.23,9.23,0,0,1,1.17-.14,2,2,0,0,1,1.93,1.91c0,.62,0,1.24,0,1.86v.09a.51.51,0,0,1-.54.5.5.5,0,0,1-.49-.51c0-.26,0-.52,0-.78s0-.75,0-1.12a1,1,0,0,0-1-.92.94.94,0,0,0-1,.93c0,.51,0,1,0,1.55a2.55,2.55,0,0,1,0,.39.48.48,0,0,1-.49.46.51.51,0,0,1-.53-.41,1.32,1.32,0,0,1,0-.34c0-1.56,0-3.12,0-4.68a1.31,1.31,0,0,1,0-.34.53.53,0,0,1,.52-.38.5.5,0,0,1,.47.48c0,.29,0,.58,0,.87Z" transform="translate(-3.81 -5.1)" style="fill:#fff"/><path d="M43.19,31.56c0,.31,0,.56,0,.82a2.07,2.07,0,0,1,0,.43.5.5,0,0,1-1,0,1,1,0,0,1,0-.3c0-.9,0-1.79,0-2.69A2.06,2.06,0,0,1,45.22,28a2,2,0,0,1-1.5,3.75C43.57,31.69,43.42,31.63,43.19,31.56Zm1-2.82a1,1,0,0,0-1,1,1,1,0,0,0,1,1,1,1,0,0,0,1-1A1,1,0,0,0,44.2,28.74Z" transform="translate(-3.81 -5.1)" style="fill:#fff"/><path d="M72.46,31.56v1.13a.48.48,0,0,1-.3.48.49.49,0,0,1-.67-.29,1.19,1.19,0,0,1-.06-.42c0-.87,0-1.74,0-2.6a2,2,0,0,1,1.1-1.93,2,2,0,0,1,2.06.09A2,2,0,0,1,73,31.73Zm2-1.84a1,1,0,0,0-2,0,1,1,0,0,0,2,0Z" transform="translate(-3.81 -5.1)" style="fill:#fff"/><path d="M68.63,31.74a2,2,0,0,1-2-2,2.05,2.05,0,1,1,4.1,0A2,2,0,0,1,68.63,31.74Zm0-1a1,1,0,0,0,1-1,1,1,0,0,0-2,0A1,1,0,0,0,68.65,30.7Z" transform="translate(-3.81 -5.1)" style="fill:#fff"/><path d="M59.7,27.53h.73A.51.51,0,0,1,61,28a.53.53,0,0,1-.55.54c-.35,0-.69,0-1,0a2.55,2.55,0,0,0-.39,0,.26.26,0,0,0-.27.27c0,.19.07.32.26.34s.43,0,.65,0A1.34,1.34,0,0,1,61,31a1.16,1.16,0,0,1-1,.93,11,11,0,0,1-1.81.05.48.48,0,0,1-.47-.52.5.5,0,0,1,.51-.49h1.12a2.56,2.56,0,0,0,.39,0,.27.27,0,0,0,.23-.31.28.28,0,0,0-.26-.3c-.16,0-.32,0-.47,0a3,3,0,0,1-.52-.05,1.3,1.3,0,0,1-1-1.51,1.27,1.27,0,0,1,1.21-1.14c.26,0,.52,0,.78,0Z" transform="translate(-3.81 -5.1)" style="fill:#fff"/><path d="M49,30.23H47.55c-.52,0-.71-.21-.67-.71a2.18,2.18,0,0,1,4.32-.17,1.11,1.11,0,0,1,0,.17c0,.48-.17.7-.64.71Zm-1-1c.75,0,1.42,0,2.14,0a1.18,1.18,0,0,0-2.14,0Z" transform="translate(-3.81 -5.1)" style="fill:#fff"/><path d="M52.74,27.53h.73c.35,0,.58.22.57.51a.53.53,0,0,1-.54.51c-.23,0-.46,0-.68,0a5.87,5.87,0,0,0,0,1.82.64.64,0,0,0,.66.52c.14,0,.28,0,.43,0a.56.56,0,0,1,.61.49.51.51,0,0,1-.51.53,4.23,4.23,0,0,1-1.07-.05,1.65,1.65,0,0,1-1.18-1.5,5.44,5.44,0,0,1,0-.57v-3a1.94,1.94,0,0,1,0-.34.5.5,0,0,1,1-.05,3.08,3.08,0,0,1,0,.61C52.74,27.14,52.74,27.31,52.74,27.53Z" transform="translate(-3.81 -5.1)" style="fill:#fff"/><path d="M49,31.89a1.93,1.93,0,0,1-1.49-.69.53.53,0,0,1-.12-.52.45.45,0,0,1,.79-.13,1.16,1.16,0,0,0,.74.4,1.05,1.05,0,0,0,.94-.36.48.48,0,0,1,.48-.22.47.47,0,0,1,.28.77,1.91,1.91,0,0,1-1.37.74Z" transform="translate(-3.81 -5.1)" style="fill:#fff"/></g><g id="Layer_2" data-name="Layer 2"><path d="M29.13,34.9a5.76,5.76,0,0,1-4.61-2.12,4.63,4.63,0,0,0-2.35-1.61,4.38,4.38,0,0,0-4.67,1.55,5.6,5.6,0,0,1-6.56,1.76A5.92,5.92,0,0,1,7.79,26.3a3.22,3.22,0,0,1,.89-1.09c3-2.36,6-4.73,9.06-7.11a5.89,5.89,0,0,1,4-1.19,9.5,9.5,0,0,1,1.88.38,3.89,3.89,0,0,1,1.52.85q3.86,3.3,7.75,6.57a5.39,5.39,0,0,1,1.94,4.35,5.85,5.85,0,0,1-4.54,5.66A9.5,9.5,0,0,1,29.13,34.9Z" transform="translate(-3.81 -5.1)" style="fill:#fff"/><path d="M11.69,10.48a6.08,6.08,0,0,1,1.37-4,3.44,3.44,0,0,1,5.24-.27A5.53,5.53,0,0,1,19.87,9.5a6.2,6.2,0,0,1-.82,4.15,5.32,5.32,0,0,1-1,1.2,3.34,3.34,0,0,1-4.55-.08,5.49,5.49,0,0,1-1.73-3.48C11.71,11,11.71,10.69,11.69,10.48Z" transform="translate(-3.81 -5.1)" style="fill:#fff"/><path d="M30.71,10.39A5.81,5.81,0,0,1,29.5,14.2a3.64,3.64,0,0,1-2.58,1.49,3.49,3.49,0,0,1-3-1.26,5.53,5.53,0,0,1-1.37-3.06,6.49,6.49,0,0,1,.62-3.92A4.94,4.94,0,0,1,24.39,6a3.37,3.37,0,0,1,4.47,0,5.51,5.51,0,0,1,1.85,3.77C30.73,9.94,30.71,10.16,30.71,10.39Z" transform="translate(-3.81 -5.1)" style="fill:#fff"/><path d="M31.62,18.3a4.83,4.83,0,0,1,1-3,3,3,0,0,1,5,0,5.12,5.12,0,0,1,0,6.08,3,3,0,0,1-4.92,0A4.78,4.78,0,0,1,31.62,18.3Z" transform="translate(-3.81 -5.1)" style="fill:#fff"/><path d="M10.75,18.3a4.84,4.84,0,0,1-.89,2.93,3.05,3.05,0,0,1-5.13,0,5.15,5.15,0,0,1,0-5.86,3,3,0,0,1,5.16.05A4.76,4.76,0,0,1,10.75,18.3Z" transform="translate(-3.81 -5.1)" style="fill:#fff"/></g></svg>